<?xml version="1.0" encoding="utf-8"?>
<svg viewBox="0 0 500 500" xmlns="http://www.w3.org/2000/svg">
  <defs>
    <linearGradient id="b" x1="322.58" x2="1597.4" y1="868.83" y2="868.83" gradientUnits="userSpaceOnUse">
      <stop stop-color="#606162" offset="0"/>
      <stop stop-color="#b7babb" offset="0.12"/>
      <stop stop-color="#a2a5a6" offset="0.36"/>
      <stop stop-color="#c9cccd" offset="0.51"/>
      <stop stop-color="#848687" offset="0.73"/>
      <stop stop-color="#9c9fa0" offset="0.88"/>
      <stop stop-color="#4c4d4e" offset="1"/>
    </linearGradient>
    <linearGradient id="a" x1="953.71" x2="953.71" y1="849.07" y2="867.51" gradientUnits="userSpaceOnUse">
      <stop stop-color="#9c9fa0" offset="0"/>
      <stop stop-color="#a2a5a6" offset="0.24"/>
      <stop stop-color="#4c4d4e" offset="1"/>
    </linearGradient>
  </defs>
  <rect x="-106.701" y="-117.597" width="1018.863" height="534.025" style="fill: rgb(255, 255, 255); pointer-events: none;" rx="16.146" ry="16.146"/>
  <g transform="matrix(0.064614, 0, 0, 0.064614, -103.212608, 107.063515)" style="">
    <path class="cls-1" d="m484.93 170.48h957.07a35.18 35.18 0 0 1 35.18 35.18v640.53h-1027.4v-640.53a35.18 35.18 0 0 1 35.18 -35.18z" style="fill: rgb(4, 4, 4);"/>
    <rect class="cls-2" x="501.91" y="232.67" width="927.25" height="556.31" rx="2.21" ry="2.21" style="fill: rgb(255, 255, 255);"/>
    <ellipse class="cls-3" cx="965.04" cy="204.96" rx="5.88" ry="3.49" style="fill: rgb(77, 77, 77);"/>
    <image transform="translate(925 166)" width="78" height="76"/>
    <rect class="cls-4" x="500.58" y="259.87" width="927.25" height="37.62" style="fill: rgb(134, 50, 140);"/>
    <rect class="cls-7" x="841.51" y="531.39" width="232.74" height="102.64" style="fill: rgb(0, 131, 202);"/>
    <rect class="cls-7" x="1103.1" y="529.01" width="232.74" height="102.64" style="fill: rgb(0, 131, 202);"/>
    <rect class="cls-7" x="581.29" y="531.39" width="232.74" height="102.64" style="fill: rgb(0, 131, 202);"/>
    <rect class="cls-8" x="842.22" y="650.58" width="232.74" height="6.84" style="fill: rgb(153, 153, 153);"/>
    <rect class="cls-8" x="842.22" y="670.2" width="232.74" height="6.84" style="fill: rgb(153, 153, 153);"/>
    <rect class="cls-8" x="842.22" y="689.83" width="232.74" height="6.84" style="fill: rgb(153, 153, 153);"/>
    <rect class="cls-8" x="842.22" y="709.46" width="232.74" height="6.84" style="fill: rgb(153, 153, 153);"/>
    <rect class="cls-9" x="581.29" y="732.35" width="754.58" height="56.38" style="fill: rgb(237, 17, 100);"/>
    <rect class="cls-8" x="581.29" y="649.81" width="232.74" height="6.84" style="fill: rgb(153, 153, 153);"/>
    <rect class="cls-4" x="581.26" y="438.94" width="754.58" height="195.09" style="fill: rgb(134, 50, 140);"/>
    <rect class="cls-5" x="719.15" y="522.651" width="478.81" height="39.76" style="fill: rgb(247, 247, 247);"/>
    <rect class="cls-6" x="1095.97" y="522.651" width="101.98" height="40.23" style="fill: rgb(236, 0, 140);"/>
    <rect class="cls-8" x="581.29" y="669.44" width="232.74" height="6.84" style="fill: rgb(153, 153, 153);"/>
    <rect class="cls-8" x="581.29" y="689.06" width="232.74" height="6.84" style="fill: rgb(153, 153, 153);"/>
    <rect class="cls-8" x="581.29" y="708.69" width="232.74" height="6.84" style="fill: rgb(153, 153, 153);"/>
    <rect class="cls-8" x="1103.1" y="650.58" width="232.74" height="6.84" style="fill: rgb(153, 153, 153);"/>
    <rect class="cls-8" x="1103.1" y="670.2" width="232.74" height="6.84" style="fill: rgb(153, 153, 153);"/>
    <rect class="cls-8" x="1103.1" y="689.83" width="232.74" height="6.84" style="fill: rgb(153, 153, 153);"/>
    <rect class="cls-8" x="1103.1" y="709.46" width="232.74" height="6.84" style="fill: rgb(153, 153, 153);"/>
    <rect class="cls-8" x="1106.4" y="275.09" width="112.65" height="9.35" style="fill: rgb(153, 153, 153);"/>
    <rect class="cls-10" x="965.05" y="275.09" width="112.65" height="9.35" style="fill: rgb(175, 175, 175);"/>
    <rect class="cls-8" x="688.35" y="275.09" width="112.65" height="9.35" style="fill: rgb(153, 153, 153);"/>
    <rect class="cls-8" x="823.68" y="275.09" width="112.65" height="9.35" style="fill: rgb(153, 153, 153);"/>
    <path class="cls-11" d="m1588.8 879.4c0 10.34-40.82 25.36-48.43 25.36h-1155.4c-7.61 0-48.43-15-48.43-25.36z" style="fill: rgb(145, 146, 150);"/>
    <path class="cls-12" d="m322.58 846h1274.8v22.8a22.88 22.88 0 0 1 -22.88 22.88h-1229.6a22.32 22.32 0 0 1 -22.32 -22.32v-23.36z" style="fill: url(#b);"/>
    <path class="cls-13" d="m1558.2 898.58c0 4.46-38.87 10.94-46.12 10.94h-1100.2c-7.25 0-46.12-6.48-46.12-10.94z" style="fill: rgb(70, 65, 66);"/>
    <path class="cls-14" d="m1042.4 849.07c0 9.22-7.87 18.44-18.28 18.44h-142.44c-10.29 0-16.64-9.22-16.64-18.44z" style="fill: url(#a);"/>
    <path class="cls-15" d="m777.66 906.22c3.47-2.68 13.2-2.62 15.67 0.1-5.23 1.3-10.45 1.6-15.67-0.1z" style="fill: rgb(29, 30, 33);"/>
    <path class="cls-15" d="m1123.2 906.92c3.47-2.68 13.2-2.62 15.67 0.1-5.23 1.3-10.45 1.61-15.67-0.1z" style="fill: rgb(29, 30, 33);"/>
    <path class="cls-15" d="m411.53 905.69c3.47-2.68 13.2-2.62 15.67 0.1-5.2 1.3-10.46 1.6-15.67-0.1z" style="fill: rgb(29, 30, 33);"/>
    <path class="cls-15" d="m1484 906.58c3.47-2.68 13.2-2.62 15.67 0.1-5.24 1.32-10.46 1.6-15.67-0.1z" style="fill: rgb(29, 30, 33);"/>
    <path class="cls-16" d="m1472.2 871.79a9.64 9.64 0 0 1 -2.57 0.76h-37.42a3.36 3.36 0 0 1 -2.55 -0.83c14.17-0.34 28.39-0.43 42.54 0.07z" style="fill: rgb(13, 15, 18);"/>
    <path class="cls-17" d="M1428.91,874.54c-1.63-2-3.07-4,.69-5.26,9.45.84,18.92.25,28.38.34,4.72,0,9.46.43,14.17-.3,3.74,1.83,2,3.6-.07,5.36-2.52,1.08-5.16.47-7.74.49-10.34.08-20.68.06-31,0C1431.85,875.16,1430.23,875.79,1428.91,874.54Z" style="fill: rgb(28, 30, 32);"/>
    <path class="cls-18" d="M1428.91,874.54l43.17.14a6.06,6.06,0,0,1-.08.77q-21.41.11-42.82.15c-.11,0-.32-.14-.32-.22A5.23,5.23,0,0,1,1428.91,874.54Z" style="fill: rgb(220, 221, 224);"/>
    <path class="cls-16" d="m1472.2 869.32a9.64 9.64 0 0 1 -2.57 0.76h-37.42a3.36 3.36 0 0 1 -2.55 -0.83c14.17-0.34 28.39-0.43 42.54 0.07z" style="fill: rgb(13, 15, 18);"/>
    <path class="cls-16" d="m1472.2 869.32a9.64 9.64 0 0 1 -2.57 0.76h-37.42a3.36 3.36 0 0 1 -2.55 -0.83c14.17-0.34 28.39-0.43 42.54 0.07z" style="fill: rgb(13, 15, 18);"/>
    <path class="cls-17" d="M1428.91,874.54c-1.63-2-3.07-4,.69-5.26,9.45.84,18.92.25,28.38.34,4.72,0,9.46.43,14.17-.3,3.74,1.83,2,3.6-.07,5.36-2.52,1.08-5.16.47-7.74.49-10.34.08-20.68.06-31,0C1431.85,875.16,1430.23,875.79,1428.91,874.54Z" style="fill: rgb(28, 30, 32);"/>
    <path class="cls-19" d="M1428.91,874.54l43.17.14a6.06,6.06,0,0,1-.08.77q-21.41.11-42.82.15c-.11,0-.32-.14-.32-.22A5.23,5.23,0,0,1,1428.91,874.54Z" style="fill: rgb(206, 206, 206);"/>
    <path class="cls-16" d="m1472.2 869.32a9.64 9.64 0 0 1 -2.57 0.76h-37.42a3.36 3.36 0 0 1 -2.55 -0.83c14.17-0.34 28.39-0.43 42.54 0.07z" style="fill: rgb(13, 15, 18);"/>
    <g transform="matrix(0.534984, 0, 0, 0.534984, 600.368713, 312.692963)" style="">
      <g transform="translate(-92,-63.999774)" id="layer3" style="display:inline">
        <g id="layer5">
          <path d="m 264.513,77.977773 -4.917,19.529001 c 6.965,-13.793001 18.027,-24.172001 30.729,-33.323001 -9.287,10.789 -17.754,21.579001 -22.944,32.368001 8.741,-12.292001 20.486,-19.120001 33.733,-23.627001 -17.618,15.706001 -31.60228,32.559277 -42.25528,49.494277 l -8.467,-3.687 c 1.501,-13.521 6.60928,-27.369276 14.12128,-40.754277 z" id="path2554" style="fill:#abcd03"/>
          <path d="m 241.90113,115.14152 16.116,6.68594 c 0,4.098 -0.33313,16.59703 2.22938,20.28403 26.80289,34.5191 22.29349,103.71329 -5.42951,105.48829 -42.21656,0 -58.317,-28.679 -58.317,-55.03801 0,-24.037 28.816,-40.016 46.025,-54.219 4.37,-3.824 3.61113,-12.27525 -0.62387,-23.20125 z" id="path2534" style="fill:#fffcdb"/>
          <path d="m 258.02197,121.58695 5.80803,2.96282 c -0.546,3.823 0.273,12.292 4.096,14.476 16.936,10.516 32.914,21.988 39.197,33.46 22.398,40.42601 -15.706,77.84601 -48.62,74.29501 17.891,-13.248 23.081,-40.42501 16.389,-70.06201 -2.731,-11.609 -6.966,-22.125 -14.478,-34.007 -3.25421,-5.83246 -2.11803,-13.06582 -2.39203,-21.12482 z" id="path2536" style="fill:#7d4698"/>
        </g>
        <g id="layer4" style="display:inline">
          <path d="m 255.226,120.58877 12.018,1.639 c -3.551,11.745 6.966,19.939 10.38,21.852 7.64801,4.234 15.02301,8.604 20.89601,13.93 11.063,10.106 17.345,24.31 17.345,39.333 0,14.886 -6.829,29.226 -18.301,38.786 -10.789,9.014 -25.67501,12.838 -40.15201,12.838 -9.014,0 -17.072,-0.409 -25.812,-3.278 -19.939,-6.692 -34.826,-23.763 -36.055,-44.25 -1.093,-15.979 2.458,-28.134 14.887,-40.835 6.418,-6.692 19.393,-14.34 28.271,-20.486 4.371,-3.005 9.014,-11.473 0.136,-27.451 l 1.776,-1.366 13.15659,8.81203 -11.10759,-4.57803 c 0.956,1.366 3.551,7.512 4.098,9.287 1.229,5.053 0.683,9.971 -0.41,12.155 -5.599,10.107 -15.159,12.838 -22.124,18.574 -12.292,10.106 -25.676,18.164 -24.174,45.888 0.683,13.657 11.336,30.319 27.314,38.104 9.014,4.371 19.394,6.146 29.91,6.692 9.423,0.41 27.45101,-5.19 37.28401,-13.384 10.516,-8.74 16.389,-21.988 16.389,-35.508 0,-13.658 -5.463,-26.632 -15.706,-35.783 -5.873,-5.326 -15.56901,-11.745 -21.57801,-15.16 -6.009,-3.414 -13.521,-12.974 -11.063,-22.124 z" id="path2538"/>
          <path d="m 251.539,140.80177 c -1.229,6.283 -2.595,17.618 -8.058,21.852 -2.322,1.638 -4.644,3.278 -7.102,4.916 -9.833,6.693 -19.667,12.974 -24.173,29.09 -0.956,3.415 -0.136,7.102 0.684,10.516 2.458,9.833 9.423,20.486 14.886,26.769 0,0.273 1.093,0.956 1.093,1.229 4.507,5.327 5.873,6.829 22.944,10.652 l -0.41,1.913 c -10.243,-2.731 -18.71,-5.189 -24.037,-11.336 0,-0.136 -0.956,-1.093 -0.956,-1.093 -5.736,-6.556 -12.702,-17.481 -15.296,-27.724 -0.956,-4.098 -1.775,-7.238 -0.683,-11.473 4.643,-16.661 14.75,-23.217 24.993,-30.182 2.322,-1.502 5.053,-2.869 7.238,-4.644 4.233,-3.14 6.554,-12.701 8.877,-20.485 z" id="path2540"/>
          <path d="m 255.90625,166.74951 c 0.137,7.102 -0.55625,10.66475 1.21875,15.71875 1.092,3.004 4.782,7.1015 5.875,11.0625 1.502,5.327 3.138,11.19901 3,14.75001 0,4.09799 -0.25625,11.74249 -2.03125,19.93749 -1.35362,6.77108 -4.47323,12.58153 -9.71875,15.875 -5.37327,-1.10644 -11.68224,-2.99521 -15.40625,-6.1875 -7.238,-6.282 -13.64875,-16.7865 -14.46875,-25.9375 -0.682,-7.51099 6.27275,-18.5885 15.96875,-24.1875 8.194,-4.78 10.1,-10.22775 11.875,-18.96875 -2.458,7.648 -4.7665,14.05925 -12.6875,18.15625 -11.472,6.009 -17.3585,16.09626 -16.8125,25.65625 0.819,12.291 5.7415,20.6195 15.4375,27.3125 4.097,2.868 11.75125,5.89875 16.53125,6.71875 l 0,-0.625 c 3.62493,-0.67888 8.31818,-6.63267 10.65625,-14.6875 2.049,-7.238 2.85675,-16.502 2.71875,-22.37499 -0.137,-3.414 -1.643,-10.80801 -4.375,-17.50001 -1.502,-3.687 -3.8095,-7.37375 -5.3125,-9.96875 -1.637,-2.597 -1.64875,-8.195 -2.46875,-14.75 z" id="path2542"/>
          <path d="m 255.09375,193.53076 c 0.136,4.78 2.056,10.90451 2.875,17.18751 0.684,4.64399 0.387,9.30824 0.25,13.40624 -0.13495,4.74323 -1.7152,13.24218 -3.875,17.375 -2.03673,-0.93403 -2.83294,-1.99922 -4.15625,-3.71875 -1.638,-2.322 -2.75075,-4.644 -3.84375,-7.375 -0.819,-2.049 -1.7765,-4.394 -2.1875,-7.125 -0.546,-4.097 -0.393,-10.5065 4.25,-17.06249 3.551,-5.19001 4.36475,-5.58476 5.59375,-11.59376 -1.64,5.326 -2.8625,5.869 -6.6875,10.37501 -4.233,4.917 -4.9375,12.15924 -4.9375,18.03124 0,2.459 0.9805,5.18725 1.9375,7.78125 1.092,2.732 2.02925,5.452 3.53125,7.5 2.25796,3.32082 5.14798,5.20922 6.5625,5.5625 0.009,0.002 0.022,-0.002 0.0312,0 0.0303,0.007 0.0649,0.0255 0.0937,0.0312 l 0,-0.15625 c 2.64982,-2.95437 4.24444,-5.88934 4.78125,-8.84375 0.683,-3.551 0.84,-7.10975 1.25,-11.34375 0.409,-3.551 0.11225,-8.334 -0.84375,-13.24999 -1.365,-6.146 -3.669,-12.41226 -4.625,-16.78126 z" id="path2544"/>
          <path d="m 255.499,135.06577 c 0.137,7.101 0.683,20.35 2.595,25.539 0.546,1.775 5.599,9.56 9.149,18.983 2.459,6.556 3.005,12.565 3.415,14.34 1.639,7.785 -0.41,20.896 -3.142,33.324 -1.365,6.692 -6.009,15.023 -11.335,18.301 l -1.092,1.912 c 3.005,-0.137 10.379,-7.375 12.974,-16.389 4.371,-15.296 6.146,-22.398 4.098,-39.333 -0.273,-1.64 -0.956,-7.238 -3.551,-13.248 -3.824,-9.151 -9.287,-17.891 -9.969,-19.667 -1.23,-2.867 -2.869,-15.295 -3.142,-23.762 z" id="path2550"/>
          <path d="m 258.06151,125.35303 c -0.40515,7.29812 -0.51351,9.98574 0.85149,15.31174 1.502,5.873 9.151,14.34 12.292,24.037 6.009,18.574 4.507,42.884 0.136,61.867 -1.638,6.691 -9.424,16.389 -17.208,19.529 l 5.736,1.366 c 3.141,-0.137 11.198,-7.648 14.34,-16.252 5.052,-13.521 6.009,-29.636 3.96,-46.571 -0.137,-1.639 -2.869,-16.252 -5.463,-22.398 -3.688,-9.15 -10.244,-17.345 -10.926,-19.119 -1.228,-3.005 -3.92651,-9.24362 -3.71849,-17.77074 z" id="path2552"/>
          <rect width="0.550412" height="126.01891" x="253.71959" y="120.21686" id="rect2556"/>
        </g>
      </g>
      <path d="M 7.9430002,18.074997 H 117.611 c 4.096,0 7.647,3.414 7.647,7.648 v 32.367 c 0,4.234 -3.551,7.649 -7.647,7.649 H 95.077 c -5.054,0 -7.239,2.867 -7.239,6.145 V 177.86401 c 0,3.551 -2.868,6.282 -6.282,6.282 H 44.272 c -3.415,0 -6.146,-2.731 -6.146,-6.282 V 70.928997 c 0,-3.278 -3.005,-5.189 -5.326,-5.189 H 7.9430002 c -4.234,0 -7.64799997,-3.415 -7.64799997,-7.649 v -32.368 c -0.001,-4.234 3.41299997,-7.648 7.64799997,-7.648 z" id="path2528" style="fill:#7d4698"/>
      <path d="m 289.30687,60.958997 9.696,0 c 3.551,0 6.419,2.868 6.419,6.282 l 0,34.690003 c 0,4.507 0.273,6.282 -5.19,6.282 -10.789,0 -15.705,5.736 -15.705,12.018 l 0,58.58901 c 0,2.732 -2.595,5.053 -5.736,5.053 l -34.827,0 c -3.141,0 -5.736,-2.321 -5.736,-5.053 l 0,-66.78401 c -0.0378,-1.17441 -0.0148,-2.9081 0.137,-3.823 1.912,-24.720003 21.30753,-44.497863 45.888,-46.981003 0.82399,-0.0832 3.73943,-0.273 5.054,-0.273 z" id="path2532" style="fill:#7d4698"/>
    </g>
  </g>
  <rect x="83.186" y="52.778" width="56.249" height="56.249" style="stroke: rgb(78, 78, 78); fill: rgb(174, 176, 177);" rx="9.101" ry="9.101"/>
  <rect x="83.186" y="168.273" width="56.249" height="56.249" style="stroke: rgb(78, 78, 78); fill: rgb(174, 176, 177);" rx="9.101" ry="9.101"/>
  <rect x="83.186" y="284.56" width="56.249" height="56.249" style="stroke: rgb(78, 78, 78); fill: rgb(174, 176, 177);" rx="9.101" ry="9.101"/>
  <rect x="202.075" y="52.778" width="56.249" height="56.249" style="stroke: rgb(78, 78, 78); fill: rgb(174, 176, 177);" rx="9.101" ry="9.101"/>
  <rect x="202.075" y="168.273" width="56.249" height="56.249" style="stroke: rgb(78, 78, 78); fill: rgb(174, 176, 177);" rx="9.101" ry="9.101"/>
  <rect x="202.075" y="284.56" width="56.249" height="56.249" style="stroke: rgb(78, 78, 78); fill: rgb(174, 176, 177);" rx="9.101" ry="9.101"/>
  <rect x="325.7" y="52.778" width="56.249" height="56.249" style="stroke: rgb(78, 78, 78); fill: rgb(174, 176, 177);" rx="9.101" ry="9.101"/>
  <rect x="325.7" y="168.273" width="56.249" height="56.249" style="stroke: rgb(78, 78, 78); fill: rgb(174, 176, 177);" rx="9.101" ry="9.101"/>
  <rect x="325.7" y="284.56" width="56.249" height="56.249" style="stroke: rgb(78, 78, 78); fill: rgb(174, 176, 177);" rx="9.101" ry="9.101"/>
  <rect x="449.434" y="52.778" width="56.249" height="56.249" style="stroke: rgb(78, 78, 78); fill: rgb(174, 176, 177);" rx="9.101" ry="9.101"/>
  <rect x="449.434" y="168.273" width="56.249" height="56.249" style="stroke: rgb(78, 78, 78); fill: rgb(174, 176, 177);" rx="9.101" ry="9.101"/>
  <rect x="449.434" y="284.56" width="56.249" height="56.249" style="stroke: rgb(78, 78, 78); fill: rgb(174, 176, 177);" rx="9.101" ry="9.101"/>
  <rect x="568.829" y="52.778" width="56.249" height="56.249" style="stroke: rgb(78, 78, 78); fill: rgb(174, 176, 177);" rx="9.101" ry="9.101"/>
  <rect x="568.829" y="168.273" width="56.249" height="56.249" style="stroke: rgb(78, 78, 78); fill: rgb(174, 176, 177);" rx="9.101" ry="9.101"/>
  <rect x="568.829" y="284.56" width="56.249" height="56.249" style="stroke: rgb(78, 78, 78); fill: rgb(174, 176, 177);" rx="9.101" ry="9.101"/>
  <rect x="691.974" y="52.778" width="56.249" height="56.249" style="stroke: rgb(78, 78, 78); fill: rgb(174, 176, 177);" rx="9.101" ry="9.101"/>
  <rect x="691.974" y="168.273" width="56.249" height="56.249" style="stroke: rgb(78, 78, 78); fill: rgb(174, 176, 177);" rx="9.101" ry="9.101"/>
  <rect x="691.974" y="284.56" width="56.249" height="56.249" style="stroke: rgb(78, 78, 78); fill: rgb(174, 176, 177);" rx="9.101" ry="9.101"/>
  <rect x="83.186" width="56.249" height="56.249" style="stroke: rgb(78, 78, 78); fill: rgb(174, 176, 177);" rx="9.101" ry="9.101" y="-56.945"/>
  <rect x="202.075" width="56.249" height="56.249" style="stroke: rgb(78, 78, 78); fill: rgb(174, 176, 177);" rx="9.101" ry="9.101" y="-56.945"/>
  <rect x="325.7" width="56.249" height="56.249" style="stroke: rgb(78, 78, 78); fill: rgb(174, 176, 177);" rx="9.101" ry="9.101" y="-56.945"/>
  <rect x="449.434" width="56.249" height="56.249" style="stroke: rgb(78, 78, 78); fill: rgb(174, 176, 177);" rx="9.101" ry="9.101" y="-56.945"/>
  <rect x="568.829" width="56.249" height="56.249" style="stroke: rgb(78, 78, 78); fill: rgb(174, 176, 177);" rx="9.101" ry="9.101" y="-56.945"/>
  <rect x="691.974" width="56.249" height="56.249" style="stroke: rgb(78, 78, 78); fill: rgb(174, 176, 177);" rx="9.101" ry="9.101" y="-56.945"/>
  <g transform="matrix(0.108584, 0, 0, 0.108584, 812.336731, 66.247009)" style="">
    <g id="layer1">
      <path style="color:#000000;fill:#000000;fill-opacity:0.086956508;fill-rule:evenodd;stroke:none;stroke-width:2.5000000;stroke-linecap:butt;stroke-linejoin:miter;stroke-miterlimit:4.0000000;stroke-dashoffset:0.0000000;stroke-opacity:1.0000000;marker:none;marker-start:none;marker-mid:none;marker-end:none;visibility:visible;display:block" d="M 380.62248,428.09036 L 380.62248,428.09036 z " id="path16683"/>
      <g id="g1359" transform="matrix(0.926958,0.000000,0.000000,0.926958,6.622532,54.15769)">
        <path style="color:#000000;fill:#929292;fill-opacity:1.0000000;fill-rule:evenodd;stroke:#000000;stroke-width:8.5006075;stroke-linecap:butt;stroke-linejoin:miter;stroke-miterlimit:4.0000000;stroke-dashoffset:0.0000000;stroke-opacity:1.0000000;marker:none;marker-start:none;marker-mid:none;marker-end:none;visibility:visible;display:inline;overflow:visible" d="M 417.96320,334.50330 C 476.16835,321.96076 588.92602,287.75479 640.93956,281.47067 C 512.95701,264.29571 405.24092,241.40451 277.25839,224.22955 C 263.70364,223.98781 125.52678,243.58521 102.45701,245.36704 C 217.21731,273.28909 303.20291,306.58124 417.96320,334.50330 z " id="path4182"/>
        <path style="color:#000000;fill:#636363;fill-opacity:1.0000000;fill-rule:evenodd;stroke:#000000;stroke-width:8.5006075;stroke-linecap:butt;stroke-linejoin:miter;stroke-miterlimit:4.0000000;stroke-dashoffset:0.0000000;stroke-opacity:1.0000000;marker:none;marker-start:none;marker-mid:none;marker-end:none;visibility:visible;display:inline;overflow:visible" d="M 107.07868,644.01625 L 417.77533,829.57064 L 436.38702,326.56632 L 103.95193,246.26780 L 107.07868,644.01625 z " id="path1061"/>
        <path style="fill:#000000;fill-opacity:0.086956508;fill-rule:evenodd;stroke:none;stroke-width:0.25000000pt;stroke-linecap:butt;stroke-linejoin:miter;stroke-opacity:1.0000000" d="M 621.34583,303.59240 C 621.34583,303.59240 620.10477,731.45364 632.48702,735.52624 C 641.98953,746.48994 633.91274,299.26757 633.91274,299.26757 L 621.34583,303.59240 z " id="path7930"/>
        <path style="color:#000000;fill:#929292;fill-opacity:1.0000000;fill-rule:evenodd;stroke:#000000;stroke-width:8.5006075;stroke-linecap:butt;stroke-linejoin:miter;stroke-miterlimit:4.0000000;stroke-dashoffset:0.0000000;stroke-opacity:1.0000000;marker:none;marker-start:none;marker-mid:none;marker-end:none;visibility:visible;display:inline;overflow:visible" d="M 382.74670,784.68144 C 422.53161,754.86324 593.60600,710.47204 633.91554,713.09464 C 639.34806,712.22014 669.25382,712.65274 670.70568,714.52834 C 675.47993,719.34724 676.63707,751.65134 670.38287,761.62634 C 658.76725,770.05774 458.10527,857.55324 402.03899,829.12304 C 374.07804,817.58304 377.34537,820.07094 382.74670,784.68144 z " id="path2869"/>
        <path style="color:#000000;fill:#f6f6f6;fill-opacity:0.40080968;fill-rule:evenodd;stroke:none;stroke-width:0.25000000pt;stroke-linecap:butt;stroke-linejoin:miter;stroke-miterlimit:4.0000000;stroke-dashoffset:0.0000000;stroke-opacity:1.0000000;marker:none;marker-start:none;marker-mid:none;marker-end:none;visibility:visible;display:inline;overflow:visible" d="M 639.24770,715.85454 C 611.50195,724.90444 516.97162,762.71464 423.50770,786.95474 C 425.93718,801.95534 445.97921,802.53554 455.85601,800.57084 C 526.81816,784.45754 648.02894,742.62314 670.59823,728.14214 C 671.66684,710.75284 650.54305,717.22304 639.24770,715.85454 z " id="path2871"/>
        <path style="color:#000000;fill:#929292;fill-opacity:1.0000000;fill-rule:evenodd;stroke:#000000;stroke-width:8.5006075;stroke-linecap:butt;stroke-linejoin:miter;stroke-miterlimit:4.0000000;stroke-dashoffset:0.0000000;stroke-opacity:1.0000000;marker:none;marker-start:none;marker-mid:none;marker-end:none;visibility:visible;display:inline;overflow:visible" d="M 629.30506,719.60834 C 629.44296,588.52692 620.69798,434.00079 620.83588,302.91943 C 627.43228,315.28280 645.79308,319.14474 663.41418,314.68193 C 663.27628,441.96326 661.78078,588.83712 661.64288,716.11844" id="path2873"/>
        <path style="color:#000000;fill:#929292;fill-opacity:1.0000000;fill-rule:evenodd;stroke:#000000;stroke-width:8.5006075;stroke-linecap:butt;stroke-linejoin:miter;stroke-miterlimit:4.0000000;stroke-dashoffset:0.0000000;stroke-opacity:1.0000000;marker:none;marker-start:none;marker-mid:none;marker-end:none;visibility:visible;display:inline;overflow:visible" d="M 427.62277,328.34273 L 438.63597,778.18344 L 634.25396,716.15164 L 635.97224,281.31264 L 427.62277,328.34273 z " id="path4181"/>
        <path style="color:#000000;fill:#bababa;fill-opacity:1.0000000;fill-rule:evenodd;stroke:#000000;stroke-width:7.5551300;stroke-linecap:butt;stroke-linejoin:miter;stroke-miterlimit:4.0000000;stroke-dashoffset:0.0000000;stroke-opacity:1.0000000;marker:none;marker-start:none;marker-mid:none;marker-end:none;visibility:visible;display:block" d="M 547.36961,555.08059 L 547.36961,740.26374" id="path7924"/>
        <g transform="matrix(1.072727,5.738520e-2,0.000000,1.176989,-15.07636,-184.9701)" id="g3639">
          <rect rx="5.9588685" ry="5.4876232" transform="matrix(0.955244,-0.295818,0.000000,1.000000,0.000000,0.000000)" y="694.40729" x="470.03616" height="11.974187" width="148.65286" id="rect2875" style="color:#000000;fill:#000000;fill-opacity:0.29959515;fill-rule:nonzero;stroke:none;stroke-width:2.4999995;stroke-linecap:butt;stroke-linejoin:miter;stroke-miterlimit:4.0000000;stroke-dashoffset:0.0000000;stroke-opacity:1.0000000;marker:none;marker-start:none;marker-mid:none;marker-end:none;visibility:visible;display:inline;overflow:visible"/>
          <rect rx="5.9588661" ry="5.4876232" transform="matrix(0.955244,-0.295818,0.000000,1.000000,0.000000,0.000000)" y="714.09766" x="468.98917" height="11.974187" width="148.65282" id="rect3635" style="color:#000000;fill:#000000;fill-opacity:0.29959515;fill-rule:nonzero;stroke:none;stroke-width:2.4999995;stroke-linecap:butt;stroke-linejoin:miter;stroke-miterlimit:4.0000000;stroke-dashoffset:0.0000000;stroke-opacity:1.0000000;marker:none;marker-start:none;marker-mid:none;marker-end:none;visibility:visible;display:inline;overflow:visible"/>
          <rect rx="5.9588661" ry="5.4876232" transform="matrix(0.955244,-0.295818,0.000000,1.000000,0.000000,0.000000)" y="734.47827" x="466.89545" height="11.974187" width="148.65282" id="rect3637" style="color:#000000;fill:#000000;fill-opacity:0.29959515;fill-rule:nonzero;stroke:none;stroke-width:2.4999995;stroke-linecap:butt;stroke-linejoin:miter;stroke-miterlimit:4.0000000;stroke-dashoffset:0.0000000;stroke-opacity:1.0000000;marker:none;marker-start:none;marker-mid:none;marker-end:none;visibility:visible;display:inline;overflow:visible"/>
        </g>
        <path style="color:#000000;fill:#bababa;fill-opacity:1.0000000;fill-rule:evenodd;stroke:#000000;stroke-width:7.5551300;stroke-linecap:butt;stroke-linejoin:miter;stroke-miterlimit:4.0000000;stroke-dashoffset:0.0000000;stroke-opacity:1.0000000;marker:none;marker-start:none;marker-mid:none;marker-end:none;visibility:visible;display:block" d="M 636.61105,527.79060 L 428.72348,588.30571" id="path5914"/>
        <path style="color:#000000;fill:#929292;fill-opacity:1.0000000;fill-rule:evenodd;stroke:#000000;stroke-width:8.5006075;stroke-linecap:butt;stroke-linejoin:miter;stroke-miterlimit:4.0000000;stroke-dashoffset:0.0000000;stroke-opacity:1.0000000;marker:none;marker-start:none;marker-mid:none;marker-end:none;visibility:visible;display:inline;overflow:visible" d="M 399.40557,782.62584 C 399.54347,636.11304 399.28377,481.25078 399.42167,334.73804 C 406.01807,348.55688 424.37887,352.87346 441.99997,347.88527 C 441.86207,490.15062 440.36657,638.94396 440.22867,781.20934" id="rect4813"/>
        <path id="path4406" d="M 646.18257,718.01154 L 657.83722,716.83994 L 657.88967,320.47598 L 647.62300,326.47598 L 646.18257,718.01154 z " style="color:#000000;fill:#f6f6f6;fill-opacity:0.40080968;fill-rule:nonzero;stroke:none;stroke-width:2.4999995;stroke-linecap:butt;stroke-linejoin:miter;stroke-miterlimit:4.0000000;stroke-dashoffset:0.0000000;stroke-opacity:1.0000000;marker:none;marker-start:none;marker-mid:none;marker-end:none;visibility:visible;display:inline;overflow:visible"/>
        <path id="path8207" d="M 275.59425,231.08961 L 593.41113,289.56174 L 609.68616,281.13168 L 275.59425,231.08961 z " style="color:#000000;fill:#ffffff;fill-opacity:0.36437246;fill-rule:nonzero;stroke:none;stroke-width:2.4999995;stroke-linecap:butt;stroke-linejoin:miter;stroke-miterlimit:4.0000000;stroke-dashoffset:0.0000000;stroke-opacity:1.0000000;marker:none;marker-start:none;marker-mid:none;marker-end:none;visibility:visible;display:inline;overflow:visible"/>
        <path style="color:#000000;fill:#929292;fill-opacity:1.0000000;fill-rule:evenodd;stroke:#000000;stroke-width:8.5006075;stroke-linecap:butt;stroke-linejoin:miter;stroke-miterlimit:4.0000000;stroke-dashoffset:0.0000000;stroke-opacity:1.0000000;marker:none;marker-start:none;marker-mid:none;marker-end:none;visibility:visible;display:inline;overflow:visible" d="M 391.84792,317.62270 C 431.75855,318.76516 588.95775,295.62572 629.97485,279.85418 C 635.43405,279.73251 665.30763,284.28765 666.69463,286.35575 C 671.30163,291.81323 674.61122,312.75026 668.02022,321.82155 C 662.01772,332.43140 503.16982,367.83022 458.77870,375.15681 C 379.07159,376.97996 391.60528,368.03358 391.84792,317.62270 z " id="rect4190"/>
        <path style="fill:#f6f6f6;fill-opacity:0.40080968;fill-rule:evenodd;stroke:none;stroke-width:0.25000000pt;stroke-linecap:butt;stroke-linejoin:miter;stroke-opacity:1.0000000" d="M 631.33874,284.39099 C 605.30027,292.07712 485.81900,320.11288 406.58219,321.36324 C 401.32630,332.21553 411.88343,343.27296 446.84984,343.06180 C 518.32062,336.80142 661.47272,301.40021 664.52311,290.09151 L 631.33874,284.39099 z " id="path9173"/>
        <g id="g5916" transform="matrix(3.236925,0.134526,-0.141899,3.068732,-730.8271,-1186.692)">
          <path style="color:#000000;fill:#000000;fill-opacity:1.0000000;fill-rule:evenodd;stroke:none;stroke-width:0.25000000pt;stroke-linecap:butt;stroke-linejoin:miter;stroke-miterlimit:4.0000000;stroke-dashoffset:0.0000000;stroke-opacity:1.0000000;marker:none;marker-start:none;marker-mid:none;marker-end:none;visibility:visible;display:inline;overflow:visible" d="M 426.17674,486.67550 L 427.92029,504.37026 L 433.84729,506.57724 L 441.77560,503.44055 L 438.15666,495.20714 L 438.06514,485.96117 L 434.79529,483.95977 L 426.17674,486.67550 z " id="path2844"/>
          <path style="color:#000000;fill:#ffffff;fill-opacity:0.74242425;fill-rule:evenodd;stroke:none;stroke-width:0.25000000pt;stroke-linecap:butt;stroke-linejoin:miter;stroke-miterlimit:4.0000000;stroke-dashoffset:0.0000000;stroke-opacity:1.0000000;marker:none;marker-start:none;marker-mid:none;marker-end:none;visibility:visible;display:inline;overflow:visible" d="M 431.12530,488.44205 L 431.81201,496.75070 L 434.46658,504.62081 L 439.93920,502.55620 L 436.93429,495.64077 L 436.62822,486.63527 L 431.12530,488.44205 z " id="path2846"/>
        </g>
        <path id="path3644" d="M 434.98217,398.80780 L 422.73953,787.46524 L 436.29587,783.51554 L 434.98217,398.80780 z " style="color:#000000;fill:#ffffff;fill-opacity:0.36437246;fill-rule:nonzero;stroke:none;stroke-width:2.4999995;stroke-linecap:butt;stroke-linejoin:miter;stroke-miterlimit:4.0000000;stroke-dashoffset:0.0000000;stroke-opacity:1.0000000;marker:none;marker-start:none;marker-mid:none;marker-end:none;visibility:visible;display:inline;overflow:visible"/>
        <path id="path7447" d="M 132.82575,392.29308 L 132.82575,542.19972 C 146.96789,532.30023 163.93845,465.83218 132.82575,392.29308 z " style="color:#000000;fill:#000000;fill-opacity:0.40080968;fill-rule:evenodd;stroke:none;stroke-width:0.25000000pt;stroke-linecap:butt;stroke-linejoin:miter;stroke-miterlimit:4.0000000;stroke-dashoffset:0.0000000;stroke-opacity:1.0000000;marker:none;marker-start:none;marker-mid:none;marker-end:none;visibility:visible;display:inline;overflow:visible"/>
      </g>
      <g transform="matrix(0.434008,0.000000,0.000000,0.434008,-1.461900,8.390309)" id="g1385">
        <path style="color:#000000;fill:#ffffff;fill-opacity:1.0000000;fill-rule:nonzero;stroke:none;stroke-width:1.6250000;stroke-linecap:butt;stroke-linejoin:miter;stroke-miterlimit:4.0000000;stroke-dashoffset:0.0000000;stroke-opacity:1.0000000;marker:none;marker-start:none;marker-mid:none;marker-end:none;visibility:visible;display:block;overflow:visible" d="M 153.03811,329.59804 L 153.03811,329.59804 z " id="path16564"/>
      </g>
    </g>
  </g>
  <line style="fill: rgb(255, 255, 255); stroke-width: 3px; stroke: rgb(69, 205, 35); stroke-linecap: round;" x1="1.169" y1="147.187" x2="83.186" y2="197.643"/>
  <line style="fill: rgb(255, 255, 255); stroke-width: 3px; stroke: rgb(69, 205, 35); stroke-linecap: round;" x1="139.435" y1="198.229" x2="202.075" y2="313.48"/>
  <line style="fill: rgb(255, 255, 255); stroke-width: 3px; stroke: rgb(69, 205, 35); stroke-linecap: round;" x1="258.324" y1="314.589" x2="324.804" y2="196.302"/>
  <text style="fill: rgb(69, 205, 35); font-family: Arial, sans-serif; font-size: 26.7px; stroke: rgb(0, 0, 0); stroke-width: 0.5px; white-space: pre;" x="335.729" y="204.7">RP</text>
  <text style="fill: rgb(212, 43, 43); font-family: Arial, sans-serif; font-size: 26.7px; stroke: rgb(0, 0, 0); stroke-width: 0.5px; white-space: pre;" x="340.301" y="89.085">IP</text>
  <text style="fill: rgb(212, 43, 43); font-family: Arial, sans-serif; font-size: 26.7px; stroke: rgb(0, 0, 0); stroke-width: 0.5px; white-space: pre;" x="217.491" y="-21.596">IP</text>
  <text style="fill: rgb(212, 43, 43); font-family: Arial, sans-serif; font-size: 26.7px; stroke: rgb(0, 0, 0); stroke-width: 0.5px; white-space: pre;" x="584.958" y="-21.136">IP</text>
  <line style="fill: rgb(216, 216, 216); stroke: rgb(234, 37, 37); stroke-width: 3px; stroke-linecap: round;" x1="811.484" y1="123.054" x2="748.223" y2="-28.967"/>
  <line style="fill: rgb(216, 216, 216); stroke: rgb(234, 37, 37); stroke-width: 3px; stroke-linecap: round;" x1="692.198" y1="-30.077" x2="625.078" y2="82.691"/>
  <line style="fill: rgb(216, 216, 216); stroke: rgb(234, 37, 37); stroke-width: 3px; stroke-linecap: round;" x1="569.583" y1="80.887" x2="505.683" y2="-28.967"/>
  <line style="fill: rgb(216, 216, 216); stroke: rgb(234, 37, 37); stroke-width: 3px; stroke-linecap: round;" x1="448.632" y1="-30.077" x2="381.949" y2="82.691"/>
  <line style="fill: rgb(216, 216, 216); stroke-width: 3px; stroke: rgb(28, 98, 226);" x1="812.936" y1="124.05" x2="748.223" y2="314.589"/>
  <line style="fill: rgb(216, 216, 216); stroke-width: 3px; stroke: rgb(28, 98, 226);" x1="692.437" y1="313.205" x2="625.078" y2="198.229"/>
  <line style="fill: rgb(216, 216, 216); stroke-width: 3px; stroke: rgb(28, 98, 226);" x1="568.829" y1="196.302" x2="505.683" y2="196.302"/>
  <line style="fill: rgb(216, 216, 216); stroke-width: 3px; stroke: rgb(28, 98, 226);" x1="448.632" y1="196.302" x2="381.949" y2="196.302"/>
  <line style="fill: rgb(216, 216, 216); stroke-width: 3px; stroke: rgb(238, 234, 30);" x1="352.344" y1="109.108" x2="352.094" y2="168.273"/>
</svg>